<svg xmlns="http://www.w3.org/2000/svg" width="18.438" height="18.07" viewBox="0 0 18.438 18.07">
  <defs>
    <style>
      .cls-1 {
        fill: #fff;
        fill-rule: evenodd;
      }
    </style>
  </defs>
  <path id="Arrows_" data-name="Arrows " class="cls-1" d="M951.062,8481.39l0.694,0.69a0.97,0.97,0,0,0,1.388,0l6.856-6.85,6.856,6.85a0.968,0.968,0,0,0,1.387,0l0.694-.69a0.986,0.986,0,0,0,0-1.39l-8.237-8.23a0.99,0.99,0,0,0-1.4,0l-8.238,8.23A0.988,0.988,0,0,0,951.062,8481.39Zm0-7.17,0.694,0.69a0.987,0.987,0,0,0,1.388,0l6.856-6.86,6.856,6.86a0.986,0.986,0,0,0,1.387,0l0.694-.69a0.986,0.986,0,0,0,0-1.39l-8.237-8.24a1.015,1.015,0,0,0-1.4,0l-8.238,8.24A0.988,0.988,0,0,0,951.062,8474.22Z" transform="translate(-950.781 -8464.31)"/>
</svg>
