<svg xmlns="http://www.w3.org/2000/svg" width="16.75" height="16.75" viewBox="0 0 16.75 16.75">
  <defs>
    <style>
      .social {
        fill: #fff;
        fill-rule: evenodd;
      }
    </style>
  </defs>
  <path id="Dribble" class="social" d="M936.5,8407.73a8.38,8.38,0,1,1,8.384-8.38,8.393,8.393,0,0,1-8.384,8.38m7.072-7.23a10.426,10.426,0,0,0-4.46-.31,30.5,30.5,0,0,1,1.389,5.11,7.188,7.188,0,0,0,3.071-4.8m-4.274,5.45a29.71,29.71,0,0,0-1.529-5.43c-0.016.01-.031,0.01-0.047,0.02a9.836,9.836,0,0,0-5.616,4.47,7.15,7.15,0,0,0,7.192.94m-8.117-1.8a11.376,11.376,0,0,1,5.821-4.73,2.819,2.819,0,0,1,.282-0.08c-0.181-.41-0.375-0.82-0.58-1.22a26.3,26.3,0,0,1-7.36,1.02c0,0.08,0,.15,0,0.22a7.135,7.135,0,0,0,1.841,4.79m-1.691-6.26a26.313,26.313,0,0,0,6.621-.87,45.206,45.206,0,0,0-2.655-4.14,7.176,7.176,0,0,0-3.966,5.01m5.332-5.49a38.276,38.276,0,0,1,2.672,4.19,7.983,7.983,0,0,0,3.752-2.59,7.153,7.153,0,0,0-6.424-1.6m7.22,2.43a9.443,9.443,0,0,1-4,2.83c0.165,0.34.327,0.68,0.477,1.03,0.052,0.13.1,0.25,0.152,0.37a16.719,16.719,0,0,1,4.986.23,7.1,7.1,0,0,0-1.618-4.46" transform="translate(-928.125 -8390.97)"/>
</svg>
