<svg xmlns="http://www.w3.org/2000/svg" width="19.25" height="15.62" viewBox="0 0 19.25 15.62">
  <defs>
    <style>
      .social {
        fill: #fff;
        fill-rule: evenodd;
      }
    </style>
  </defs>
  <path id="Twitter" class="social" d="M981.535,8393.22a8.175,8.175,0,0,1-2.268.62,3.99,3.99,0,0,0,1.736-2.19,7.566,7.566,0,0,1-2.506.96,3.953,3.953,0,0,0-6.828,2.7,4.044,4.044,0,0,0,.1.9,11.208,11.208,0,0,1-8.135-4.12,3.9,3.9,0,0,0-.535,1.98,3.956,3.956,0,0,0,1.756,3.29,3.88,3.88,0,0,1-1.787-.5c0,0.02,0,.04,0,0.05a3.94,3.94,0,0,0,3.166,3.87,3.974,3.974,0,0,1-1.041.14,3.64,3.64,0,0,1-.742-0.07,3.946,3.946,0,0,0,3.687,2.74,7.912,7.912,0,0,1-4.9,1.69c-0.32,0-.635-0.02-0.942-0.05a11.23,11.23,0,0,0,17.281-9.46c0-.17,0-0.34-0.011-0.51a8.093,8.093,0,0,0,1.97-2.04" transform="translate(-962.281 -8391.38)"/>
</svg>
